<?xml version="1.0" standalone="no"?>
<!DOCTYPE svg PUBLIC "-//W3C//DTD SVG 20010904//EN"
 "http://www.w3.org/TR/2001/REC-SVG-20010904/DTD/svg10.dtd">
<svg version="1.0" xmlns="http://www.w3.org/2000/svg"
 width="310.000000pt" height="310.000000pt" viewBox="0 0 310.000000 310.000000"
 preserveAspectRatio="xMidYMid meet">
<metadata>
Created by potrace 1.11, written by Peter Selinger 2001-2013
</metadata>
<g transform="translate(0.000000,310.000000) scale(0.100000,-0.100000)"
fill="#000000" stroke="none">
<path d="M0 1550 l0 -1550 1550 0 1550 0 0 1550 0 1550 -1550 0 -1550 0 0
-1550z m1384 424 c21 -20 20 -38 -4 -169 -11 -60 -20 -120 -20 -134 l0 -26
105 9 c113 10 135 4 135 -38 0 -48 -20 -58 -138 -70 -61 -6 -113 -14 -117 -17
-12 -13 17 -145 41 -186 40 -69 75 -79 136 -37 60 42 110 15 94 -50 -8 -33
-99 -79 -156 -80 -110 -2 -201 118 -217 282 l-6 63 -72 -2 c-98 -4 -129 23
-90 78 12 18 29 23 94 28 l78 7 27 172 c16 94 33 174 39 178 20 13 55 9 71 -8z
m1216 -34 c39 -39 13 -84 -51 -93 -50 -7 -82 -29 -126 -86 -34 -44 -83 -181
-83 -232 0 -28 2 -29 48 -29 60 0 92 -21 92 -60 0 -38 -28 -53 -93 -48 l-52 3
4 -216 3 -217 -26 -17 c-33 -22 -73 -8 -80 27 -3 13 -7 107 -8 210 -2 102 -6
190 -10 193 -13 13 -58 -5 -59 -23 -1 -15 -2 -15 -6 0 -3 13 -12 15 -39 11
-42 -7 -64 10 -64 47 0 38 19 50 103 70 l71 17 18 87 c30 157 111 291 202 338
78 40 128 46 156 18z m-1732 -116 c37 -8 83 -23 102 -32 30 -15 35 -22 35 -51
0 -25 -7 -39 -27 -54 l-27 -20 -53 24 c-45 21 -68 24 -160 24 -89 0 -110 -3
-125 -18 -17 -16 -16 -18 2 -36 11 -11 84 -46 163 -79 214 -91 280 -134 313
-207 32 -69 21 -145 -29 -202 -11 -12 -48 -36 -83 -54 -61 -30 -71 -31 -214
-36 -202 -7 -345 12 -496 68 -67 24 -87 55 -68 101 14 34 34 36 115 8 105 -36
252 -61 368 -62 135 -2 226 15 233 43 6 22 19 25 26 7 6 -17 57 29 57 50 0 36
-87 99 -201 146 -248 104 -279 122 -305 183 -20 47 -17 95 9 134 46 69 215 98
365 63z m1848 -102 c13 -8 34 -46 34 -61 0 -16 -38 -51 -55 -51 -22 0 -65 45
-65 69 0 39 53 65 86 43z m-1076 -92 c0 -5 -2 -10 -4 -10 -3 0 -8 5 -11 10 -3
6 -1 10 4 10 6 0 11 -4 11 -10z m336 -65 c62 -47 53 -124 -19 -179 -40 -31
-108 -56 -151 -56 l-31 -1 24 -19 c30 -25 74 -25 130 0 51 23 78 19 87 -15 10
-41 0 -59 -47 -83 -65 -32 -149 -33 -212 -3 -86 42 -128 153 -93 246 21 53 91
119 144 134 57 16 129 6 168 -24z m730 -148 c7 -61 15 -137 19 -168 7 -52 6
-58 -14 -69 -50 -26 -83 11 -100 111 -18 105 -15 223 7 241 55 49 74 24 88
-115z m-286 -238 c0 -4 -7 -6 -15 -3 -8 4 -15 10 -15 15 0 4 7 6 15 3 8 -4 15
-10 15 -15z m-1380 -199 c0 -5 -7 -10 -16 -10 -8 0 -12 5 -9 10 3 6 10 10 16
10 5 0 9 -4 9 -10z m-943 -112 c-3 -8 -6 -5 -6 6 -1 11 2 17 5 13 3 -3 4 -12
1 -19z m173 -148 c0 -5 -4 -10 -9 -10 -6 0 -13 5 -16 10 -3 6 1 10 9 10 9 0
16 -4 16 -10z m550 -16 c0 -8 -4 -12 -10 -9 -5 3 -10 13 -10 21 0 8 5 12 10 9
6 -3 10 -13 10 -21z m-342 -29 c-3 -3 -9 2 -12 12 -6 14 -5 15 5 6 7 -7 10
-15 7 -18z m2337 -35 c4 -6 -5 -10 -19 -10 -14 0 -26 5 -26 10 0 6 9 10 19 10
11 0 23 -4 26 -10z m-220 -50 c3 -5 -3 -10 -15 -10 -12 0 -18 5 -15 10 3 6 10
10 15 10 5 0 12 -4 15 -10z m-1810 -80 c2 -4 -27 -8 -65 -9 -44 -1 -70 2 -70
9 0 12 128 12 135 0z m2250 -10 c3 -5 -1 -10 -9 -10 -9 0 -16 5 -16 10 0 6 4
10 9 10 6 0 13 -4 16 -10z m-2195 -19 c0 -14 -10 -20 -42 -24 -24 -3 -47 -2
-52 4 -6 5 6 9 33 9 23 0 40 4 37 9 -5 8 2 14 22 20 1 1 2 -7 2 -18z m1569 -7
c3 -2 -3 -12 -13 -22 -14 -12 -20 -14 -23 -4 -3 6 -13 12 -24 12 -21 0 -26 16
-6 24 12 5 58 -2 66 -10z m457 -9 c-23 -17 -36 -19 -36 -6 0 5 10 12 23 14 12
2 24 5 27 5 3 1 -4 -5 -14 -13z m-556 1 c0 -2 -7 -6 -15 -10 -8 -3 -15 -1 -15
4 0 6 7 10 15 10 8 0 15 -2 15 -4z m-1970 -60 c0 -11 -19 -15 -25 -6 -3 5 1
10 9 10 9 0 16 -2 16 -4z m550 -27 c0 -5 -20 -9 -45 -9 -34 0 -45 4 -45 16 0
10 6 13 18 10 9 -3 24 -1 32 4 15 9 40 -4 40 -21z m1830 -9 c0 -5 -5 -10 -11
-10 -5 0 -7 5 -4 10 3 6 8 10 11 10 2 0 4 -4 4 -10z m-627 -27 c-7 -2 -19 -2
-25 0 -7 3 -2 5 12 5 14 0 19 -2 13 -5z m-1521 -68 c2 -19 3 -35 1 -35 -9 0
-34 51 -28 60 12 20 23 10 27 -25z m884 18 c-12 -12 -58 -15 -51 -3 3 5 18 10
32 10 15 0 23 -3 19 -7z m1564 -17 c0 -8 -4 -18 -10 -21 -5 -3 -10 3 -10 14 0
12 5 21 10 21 6 0 10 -6 10 -14z m-210 -6 c0 -5 -2 -10 -4 -10 -3 0 -8 5 -11
10 -3 6 -1 10 4 10 6 0 11 -4 11 -10z m47 -16 c-3 -3 -12 -4 -19 -1 -8 3 -5 6
6 6 11 1 17 -2 13 -5z m-65 -56 c-6 -6 -19 -7 -29 -3 -17 7 -17 8 2 15 24 9
41 2 27 -12z m-148 1 c-7 -12 -94 -12 -94 0 0 6 22 10 50 9 27 0 47 -4 44 -9z
m96 1 c0 -5 -7 -10 -15 -10 -8 0 -15 5 -15 10 0 6 7 10 15 10 8 0 15 -4 15
-10z m-1763 -40 c-1 -16 -9 -20 -39 -20 -21 0 -38 4 -38 9 0 5 -8 12 -17 14
-12 3 -8 5 9 6 15 0 30 -3 33 -9 11 -18 35 -11 35 11 0 11 4 18 9 14 6 -3 9
-14 8 -25z m110 24 c-3 -3 -12 -4 -19 -1 -8 3 -5 6 6 6 11 1 17 -2 13 -5z
m1933 2 c0 -9 -30 -14 -35 -6 -4 6 3 10 14 10 12 0 21 -2 21 -4z m-1703 -12
c-3 -3 -12 -4 -19 -1 -8 3 -5 6 6 6 11 1 17 -2 13 -5z m1573 -10 c0 -8 -4 -12
-10 -9 -5 3 -10 10 -10 16 0 5 5 9 10 9 6 0 10 -7 10 -16z m-2170 -1 c-1 -5
-8 -19 -16 -33 l-15 -25 4 28 c4 24 2 27 -17 22 -17 -5 -18 -4 -6 4 17 12 50
15 50 4z m110 1 c0 -6 -30 -37 -31 -32 -7 31 -5 38 12 38 10 0 19 -3 19 -6z
m-153 -60 c-3 -3 -12 -4 -19 -1 -8 3 -5 6 6 6 11 1 17 -2 13 -5z m90 -40 c-3
-3 -12 -4 -19 -1 -8 3 -5 6 6 6 11 1 17 -2 13 -5z m1758 -14 c-3 -5 -13 -10
-21 -10 -8 0 -12 5 -9 10 3 6 13 10 21 10 8 0 12 -4 9 -10z"/>
<path d="M1813 1474 c-29 -15 -46 -44 -25 -44 26 0 82 23 97 40 18 20 17 20
-11 20 -16 0 -44 -8 -61 -16z"/>
</g>
</svg>
